<?xml version="1.0" standalone="no"?>
<!DOCTYPE svg PUBLIC "-//W3C//DTD SVG 20010904//EN"
 "http://www.w3.org/TR/2001/REC-SVG-20010904/DTD/svg10.dtd">
<svg version="1.0" xmlns="http://www.w3.org/2000/svg"
 width="1024.000000pt" height="1024.000000pt" viewBox="0 0 1024.000000 1024.000000"
 preserveAspectRatio="xMidYMid meet">

<g transform="translate(0.000000,1024.000000) scale(0.100000,-0.100000)"
fill="#000000" stroke="none">
<path d="M0 5120 l0 -5120 1935 0 1935 0 0 22 c0 21 -42 118 -98 223 -29 56
-81 131 -109 157 -10 10 -31 31 -48 48 -16 16 -38 30 -49 30 -10 0 -64 -22
-120 -49 -55 -26 -126 -56 -156 -66 -30 -10 -73 -27 -94 -37 -22 -11 -71 -24
-110 -29 -39 -6 -94 -19 -122 -30 -66 -26 -86 -18 -152 63 -29 34 -82 99 -118
143 -36 44 -82 100 -102 124 -20 25 -50 63 -66 85 -16 23 -53 69 -83 102 -29
34 -64 76 -76 92 -80 112 -132 172 -155 181 -18 8 -43 8 -74 3 -64 -12 -91 -6
-132 32 -38 34 -96 156 -96 203 0 15 -11 51 -25 78 -13 28 -25 65 -25 83 0 18
-9 58 -19 90 -11 31 -24 84 -30 116 -6 33 -17 64 -24 68 -18 13 -105 0 -162
-25 -73 -32 -207 -31 -290 2 -99 40 -105 51 -105 191 0 88 5 134 19 181 11 35
23 102 27 149 3 47 14 105 24 130 10 25 24 90 30 145 6 55 18 118 25 140 8 22
24 94 35 160 11 66 27 149 35 185 8 36 15 81 15 100 0 19 9 70 20 114 10 43
24 122 30 175 7 53 18 112 26 131 7 19 16 67 19 105 4 39 15 106 25 150 10 44
21 118 25 165 10 138 34 351 46 401 6 26 11 81 12 123 1 62 -3 80 -19 103 -12
16 -27 45 -34 66 -6 22 -18 51 -26 65 -19 37 -18 48 13 90 15 20 28 38 29 40
0 1 8 0 16 -3 12 -5 14 -14 7 -43 -5 -20 -9 -40 -9 -44 0 -16 36 -7 86 19 l52
27 6 96 c3 52 8 113 12 134 l7 39 -37 -6 c-34 -5 -37 -4 -51 29 l-14 34 -46
-22 c-25 -12 -45 -26 -45 -30 0 -4 -6 -8 -14 -8 -28 0 -76 -72 -76 -112 0 -36
1 -37 26 -28 27 11 74 13 74 5 0 -3 -16 -31 -35 -61 -30 -46 -38 -54 -50 -44
-8 7 -15 17 -15 22 0 6 -13 25 -29 43 -51 58 -51 164 -2 234 15 21 21 44 21
85 0 33 10 86 25 130 14 41 25 86 25 101 0 14 7 42 16 63 9 20 22 58 29 84 15
54 30 76 138 192 47 51 96 94 122 106 25 12 59 35 76 51 17 16 37 29 44 29 6
0 20 9 30 20 10 11 22 20 26 20 27 0 240 195 366 337 29 32 66 72 82 88 16 17
45 55 65 85 19 30 48 73 64 95 51 73 92 160 101 214 16 103 -16 614 -44 691
-21 58 -12 107 26 142 16 15 29 37 29 50 0 13 9 37 20 53 13 20 20 47 20 80 0
28 5 79 10 115 6 36 15 146 20 245 15 268 34 446 52 480 8 17 18 48 20 70 3
22 16 63 28 90 94 209 139 273 283 405 45 41 119 112 165 157 46 46 89 83 96
83 7 0 30 14 51 30 21 17 43 30 50 30 7 0 18 7 25 15 7 9 34 25 58 37 25 11
52 26 59 34 8 7 30 16 51 20 20 4 54 15 74 25 21 11 49 19 62 19 14 0 58 11
98 24 40 13 105 27 143 30 39 3 135 13 215 21 194 20 526 20 600 0 30 -8 89
-17 130 -21 47 -4 84 -13 100 -24 14 -9 55 -25 90 -34 36 -9 88 -27 115 -41
28 -13 62 -25 77 -25 15 0 29 -4 32 -8 5 -9 128 -72 140 -72 17 0 298 -175
340 -212 87 -77 137 -118 144 -118 5 0 15 -12 23 -27 14 -27 59 -81 127 -150
17 -19 32 -40 32 -47 0 -8 15 -33 34 -55 19 -23 40 -58 46 -79 7 -20 23 -52
37 -69 36 -49 123 -225 123 -250 0 -12 16 -55 35 -95 19 -42 37 -98 41 -131 4
-31 11 -57 16 -57 14 0 30 -50 38 -125 5 -38 18 -90 29 -115 21 -49 26 -117
15 -217 -5 -45 -3 -63 5 -63 6 0 11 16 11 37 0 75 11 21 19 -91 6 -99 11 -119
29 -139 20 -22 22 -34 21 -128 -2 -192 2 -254 15 -284 18 -40 46 -162 46 -201
0 -17 11 -47 23 -66 14 -19 26 -57 30 -87 4 -30 13 -64 22 -77 9 -14 15 -46
15 -79 0 -54 20 -112 44 -127 7 -4 11 -46 12 -105 1 -77 -3 -106 -17 -135 -24
-47 -24 -68 0 -68 14 0 20 10 24 42 3 25 14 49 25 59 11 8 23 33 26 55 9 49
23 76 29 54 2 -8 10 -31 17 -50 6 -19 12 -45 11 -57 0 -13 4 -23 9 -23 5 0 12
-22 16 -50 6 -45 9 -50 40 -60 19 -6 39 -8 45 -4 8 4 9 3 5 -4 -4 -7 -20 -12
-36 -12 -16 0 -30 -7 -34 -16 -9 -25 -8 -27 19 -22 20 4 25 1 25 -16 0 -35 17
-44 63 -35 46 8 53 6 42 -11 -4 -6 -16 -8 -26 -5 -18 6 -20 3 -17 -32 3 -35 6
-38 36 -41 18 -2 32 1 32 7 0 27 45 7 86 -36 46 -51 51 -62 33 -80 -12 -12 -4
-63 10 -63 4 0 14 11 21 25 17 31 21 31 49 1 19 -20 21 -28 12 -44 -6 -12 -11
-31 -11 -43 0 -22 1 -22 60 -3 17 5 179 -156 220 -218 14 -21 30 -38 37 -38
23 0 25 -22 4 -37 -28 -19 -25 -63 5 -78 36 -18 54 -36 54 -56 0 -10 12 -25
28 -33 47 -25 99 -88 106 -129 7 -39 10 -41 58 -51 15 -4 33 -13 40 -22 7 -9
26 -28 42 -43 74 -66 76 -69 76 -111 0 -23 7 -54 16 -71 11 -22 14 -54 12
-117 -4 -135 12 -292 34 -327 22 -37 22 -53 3 -92 -9 -18 -16 -62 -17 -104 -1
-64 3 -83 30 -142 25 -52 32 -81 32 -127 0 -42 7 -75 25 -113 24 -54 42 -129
52 -219 3 -28 12 -53 24 -64 13 -12 19 -30 19 -59 0 -62 36 -194 59 -219 21
-23 60 -126 61 -160 0 -11 7 -27 15 -36 9 -10 17 -43 20 -82 3 -45 16 -96 46
-169 23 -57 46 -110 52 -117 16 -21 48 -112 57 -167 16 -96 50 -155 50 -86 0
39 11 91 19 91 4 0 12 -17 17 -37 8 -35 12 -38 49 -41 53 -3 74 10 52 33 -22
22 -22 62 1 69 20 7 62 68 62 91 0 11 10 15 35 15 29 0 38 -5 47 -28 7 -15 23
-40 37 -55 19 -20 26 -39 26 -69 0 -69 -75 -121 -208 -144 -20 -3 -48 -15 -62
-26 -14 -11 -25 -15 -25 -9 0 6 -7 11 -15 11 -8 0 -15 -9 -15 -20 0 -13 7 -20
19 -20 26 0 34 -22 42 -120 9 -107 27 -175 73 -270 20 -41 36 -87 36 -102 0
-15 9 -49 19 -76 11 -27 30 -99 42 -160 l22 -110 -34 -30 c-19 -17 -52 -39
-74 -49 -22 -10 -44 -22 -50 -28 -5 -6 -37 -28 -70 -50 -71 -47 -71 -47 -90
-109 -10 -34 -12 -53 -5 -61 6 -7 18 -46 27 -86 8 -41 18 -87 22 -104 5 -22 0
-46 -19 -88 -20 -47 -35 -64 -75 -90 l-50 -32 -265 0 c-230 -1 -279 -4 -370
-22 -58 -12 -118 -26 -133 -32 -16 -6 -39 -11 -52 -11 -35 0 -61 -41 -69 -106
-4 -32 -11 -63 -16 -69 -5 -6 -16 -55 -24 -110 -13 -91 -17 -101 -48 -127 -46
-39 -102 -75 -129 -83 -13 -4 -46 -27 -74 -50 -27 -23 -64 -49 -82 -58 -17 -9
-35 -21 -38 -27 -4 -7 468 -10 1429 -10 l1436 0 0 5120 0 5120 -5120 0 -5120
0 0 -5120z m8379 -931 c9 -24 24 -55 33 -69 9 -14 35 -68 58 -120 23 -52 46
-99 51 -105 5 -5 9 -20 9 -32 0 -13 9 -43 21 -66 11 -23 29 -69 39 -102 11
-33 26 -69 34 -80 9 -11 16 -41 16 -67 0 -27 4 -48 8 -48 15 0 32 -49 32 -90
0 -38 -5 -43 -36 -39 -13 2 -24 -27 -24 -66 0 -22 -4 -46 -9 -53 -33 -53 -94
76 -84 178 4 44 2 59 -11 69 -10 9 -16 29 -16 58 0 24 -9 61 -20 84 -12 22
-25 68 -30 102 -4 34 -13 80 -19 102 -6 22 -11 57 -11 78 0 21 -9 55 -20 77
-11 22 -20 52 -20 67 0 16 -7 39 -17 52 -17 25 -35 100 -26 114 10 17 27 -1
42 -44z m356 -920 c6 -31 20 -64 32 -76 57 -57 70 -137 23 -139 -14 0 -24 -6
-22 -12 1 -7 -5 -12 -14 -12 -13 0 -15 8 -12 43 6 51 -14 97 -42 97 -35 0 -57
81 -26 93 8 3 17 20 21 37 10 45 27 32 40 -31z m225 -381 c16 -17 34 -45 40
-62 7 -17 21 -50 33 -74 18 -37 19 -45 7 -70 -7 -15 -13 -30 -12 -34 3 -13
-49 -21 -71 -10 -24 11 -19 14 35 26 20 5 26 11 21 22 -3 9 0 20 7 24 11 7 11
14 0 39 -12 30 -14 31 -36 16 -36 -23 -49 -19 -52 18 -2 17 -11 40 -21 51 -16
16 -24 17 -50 8 -28 -10 -31 -9 -31 8 0 10 4 30 10 44 8 22 16 26 50 26 33 0
47 -6 70 -32z m-194 -10 c4 -14 -1 -27 -15 -42 -19 -18 -23 -19 -31 -6 -11 16
-13 63 -4 72 11 11 43 -5 50 -24z"/>
<path d="M5966 9002 c-9 -16 6 -51 24 -57 11 -3 37 -42 59 -88 78 -157 104
-197 129 -197 12 0 22 2 22 5 0 22 -96 189 -123 215 -20 18 -43 51 -53 74 -23
51 -45 69 -58 48z"/>
<path d="M6180 8556 c0 -28 7 -52 20 -69 11 -13 26 -51 33 -84 8 -32 26 -81
41 -108 14 -28 26 -64 26 -82 0 -22 6 -36 20 -43 18 -10 20 -7 22 27 2 49 2
47 -17 128 -19 78 -52 160 -72 177 -7 6 -13 19 -13 29 0 32 -22 69 -42 69 -15
0 -18 -8 -18 -44z"/>
<path d="M6344 8056 c3 -51 13 -115 20 -142 9 -31 19 -152 26 -329 6 -154 15
-283 18 -287 11 -11 -7 -380 -18 -407 -7 -14 -8 -46 -5 -76 4 -31 2 -68 -6
-96 -7 -24 -13 -88 -14 -141 -1 -61 -6 -102 -14 -112 -9 -11 -12 -49 -10 -132
3 -86 0 -119 -9 -122 -7 -2 -10 -8 -7 -13 3 -5 -1 -30 -10 -56 -10 -28 -18
-95 -21 -158 -3 -60 -11 -164 -19 -230 -17 -138 -19 -271 -5 -280 6 -3 13 1
16 9 3 9 12 16 20 16 9 0 14 12 14 38 0 20 7 51 16 67 14 26 15 55 10 202 -6
145 -4 181 10 223 14 42 14 57 4 93 -14 51 -14 81 -1 85 6 2 13 20 17 40 4 20
11 42 16 49 6 7 12 41 15 75 3 35 13 74 21 88 11 17 16 49 17 105 0 68 4 85
24 114 27 37 41 124 22 135 -18 11 -13 61 9 81 19 17 20 29 16 294 -3 234 -6
283 -21 321 -9 25 -21 83 -26 130 -23 226 -27 258 -39 281 -8 14 -14 62 -14
114 -1 49 -5 96 -9 103 -5 6 -22 12 -39 12 l-31 0 7 -94z"/>
<path d="M3885 7566 c-11 -7 -33 -16 -50 -20 -31 -8 -135 -82 -135 -96 0 -5
-12 -22 -26 -39 -33 -40 -54 -118 -54 -206 0 -160 52 -281 148 -342 43 -28 59
-33 112 -33 50 0 70 5 94 23 17 12 43 28 57 34 15 6 37 30 50 52 12 23 26 41
30 41 4 0 11 14 14 31 4 18 16 50 26 73 26 57 25 176 -1 231 -11 22 -19 48
-20 58 0 28 -47 103 -85 136 -30 26 -115 71 -134 71 -4 0 -15 -6 -26 -14z"/>
<path d="M4985 7503 c-78 -60 -128 -143 -148 -246 -21 -105 -22 -167 -2 -193
8 -10 15 -40 15 -66 0 -32 6 -54 18 -66 9 -9 25 -29 34 -44 19 -29 105 -90
151 -107 76 -29 155 1 215 82 54 71 59 82 82 185 16 73 18 101 10 143 -6 28
-10 71 -10 94 0 52 -53 161 -90 183 -14 9 -38 27 -53 41 -24 22 -39 26 -100
29 -70 3 -73 2 -122 -35z"/>
<path d="M5991 6831 c-21 -74 -31 -152 -31 -250 0 -127 -18 -316 -36 -369 -8
-23 -14 -64 -14 -91 0 -51 -16 -111 -30 -111 -4 0 -6 -17 -3 -37 3 -21 0 -63
-7 -93 -6 -30 -16 -98 -21 -150 -9 -80 -14 -98 -34 -115 -17 -15 -24 -33 -28
-75 -7 -75 -31 -190 -45 -217 -7 -12 -12 -32 -12 -45 0 -13 -11 -46 -24 -74
-13 -27 -27 -74 -30 -105 -3 -31 -15 -84 -26 -118 -31 -99 -53 -230 -51 -304
1 -38 -2 -74 -7 -80 -5 -7 -13 -28 -17 -47 -4 -19 -13 -38 -19 -42 -8 -6 -7
-8 2 -8 6 0 12 -9 12 -20 0 -11 6 -20 13 -20 15 0 47 -103 47 -152 0 -44 8
-68 24 -68 6 0 18 -9 26 -20 15 -21 40 -27 40 -10 0 6 9 10 19 10 16 0 21 9
26 48 10 78 15 92 35 110 11 9 20 22 20 29 0 7 9 13 20 13 11 0 20 4 20 9 0 5
9 12 19 16 15 4 23 21 31 63 6 31 18 80 26 107 7 28 19 123 24 211 8 114 17
177 30 215 11 30 20 73 20 97 0 36 4 44 26 54 l26 12 -7 151 c-4 82 -11 154
-16 160 -5 5 -9 25 -9 44 0 23 -8 43 -24 60 -22 24 -24 32 -19 88 3 34 9 60
13 58 4 -3 10 10 13 28 6 32 27 151 46 257 7 37 7 97 0 180 -5 69 -12 208 -14
309 -3 115 -11 203 -20 235 -7 28 -16 62 -18 76 -3 21 -5 18 -16 -19z"/>
<path d="M6686 6498 c-8 -13 -17 -57 -21 -98 -3 -41 -12 -85 -18 -97 -7 -13
-11 -40 -9 -62 3 -32 7 -38 23 -34 10 3 19 14 19 24 0 10 5 21 10 24 6 3 10
15 10 26 0 10 4 19 9 19 6 0 22 11 37 25 15 14 31 25 35 25 5 0 9 7 9 15 0 11
5 12 25 5 20 -7 30 -5 51 13 l26 22 -26 28 c-14 15 -35 27 -46 27 -12 0 -33
14 -47 30 -30 36 -67 39 -87 8z"/>
<path d="M6901 6086 c-8 -9 -11 -19 -7 -23 9 -9 29 13 24 27 -2 8 -8 7 -17 -4z"/>
<path d="M2530 5800 c-30 -33 -58 -69 -62 -79 -8 -23 -152 -171 -166 -171 -6
0 -20 -17 -33 -37 -12 -21 -37 -54 -54 -73 -18 -19 -49 -64 -70 -100 -20 -35
-45 -70 -55 -77 -21 -15 -70 -105 -70 -129 0 -9 -13 -31 -29 -49 -17 -20 -32
-51 -36 -76 -4 -23 -20 -60 -36 -82 -29 -41 -37 -81 -19 -92 6 -4 23 -4 39 0
27 6 29 9 33 70 2 40 10 71 20 82 24 27 78 138 78 160 0 11 10 28 22 39 11 10
34 47 49 80 16 34 41 71 56 83 15 11 33 26 38 33 38 46 227 225 257 244 21 13
44 37 53 54 9 16 24 30 33 30 10 0 31 13 46 29 23 24 27 36 24 72 -3 41 -5 44
-33 47 -26 2 -38 -6 -85 -58z"/>
<path d="M5443 5723 c-7 -2 -13 -14 -13 -24 0 -43 -27 -76 -68 -83 -40 -6 -52
-20 -52 -57 0 -10 -15 -35 -34 -55 -41 -43 -66 -134 -59 -211 7 -68 -2 -103
-26 -103 -14 0 -20 -10 -25 -44 -6 -40 -10 -45 -40 -50 -40 -8 -56 -37 -56
-106 0 -29 -5 -50 -11 -50 -6 0 -8 -9 -4 -22 15 -53 28 -78 42 -78 19 0 43 25
43 44 0 9 8 16 20 16 12 0 20 7 20 16 0 8 7 22 15 31 9 8 19 28 22 44 3 16 9
29 14 29 5 0 9 9 9 19 0 11 7 26 15 35 8 8 15 22 15 30 0 9 4 16 10 16 5 0 12
23 16 50 4 34 11 50 21 50 31 0 41 22 60 128 3 18 11 32 19 32 9 0 14 11 14
30 0 17 5 30 10 30 6 0 10 8 10 18 0 10 9 24 20 32 14 10 18 21 13 39 -3 15
-11 29 -16 33 -6 4 -5 12 5 21 26 26 41 75 34 112 -7 33 -16 40 -43 28z"/>
<path d="M2975 5668 c-4 -13 -22 -35 -39 -49 l-31 -26 -12 -174 c-11 -153 -10
-182 4 -242 12 -50 14 -90 9 -155 -4 -48 -9 -123 -13 -167 -3 -44 -9 -85 -14
-91 -5 -6 -7 -18 -4 -25 2 -8 9 -133 14 -279 6 -146 14 -276 19 -290 l9 -24
18 28 c11 16 21 58 26 99 4 40 15 131 25 202 15 111 18 207 18 669 1 402 -2
540 -11 543 -6 2 -15 -6 -18 -19z"/>
<path d="M7670 5534 c0 -8 5 -12 10 -9 6 4 8 11 5 16 -9 14 -15 11 -15 -7z"/>
<path d="M1730 5160 c-12 -8 -11 -10 8 -10 12 0 22 5 22 10 0 13 -11 13 -30 0z"/>
<path d="M6904 5019 c-17 -19 -19 -39 -20 -184 -1 -154 -3 -166 -28 -218 -18
-38 -26 -72 -26 -108 0 -31 4 -49 9 -43 16 16 39 112 33 139 -4 22 -1 26 14
23 15 -2 20 7 29 62 5 36 17 76 26 90 9 14 20 42 23 63 8 42 81 127 109 127
26 0 30 33 7 52 -34 28 -150 25 -176 -3z"/>
<path d="M8196 4801 c-4 -5 -2 -12 3 -15 5 -4 12 -2 15 3 4 5 2 12 -3 15 -5 4
-12 2 -15 -3z"/>
<path d="M5023 4790 c-17 -7 -23 -18 -23 -40 0 -28 2 -30 40 -30 l40 0 0 40
c0 43 -11 48 -57 30z"/>
<path d="M4952 4740 c0 -14 2 -19 5 -12 2 6 2 18 0 25 -3 6 -5 1 -5 -13z"/>
<path d="M8190 4675 c-7 -8 -20 -15 -30 -15 -15 0 -16 -8 -12 -52 3 -35 12
-61 25 -76 l21 -23 12 23 c22 40 28 115 11 138 -12 18 -16 19 -27 5z"/>
<path d="M7142 4648 c-5 -7 -13 -97 -16 -199 -4 -102 -12 -203 -17 -225 -5
-21 -12 -92 -16 -157 l-6 -118 33 -34 c18 -18 30 -38 26 -43 -3 -6 0 -25 8
-43 13 -32 14 -29 21 72 7 119 1 523 -10 587 -6 36 -3 49 19 82 33 50 33 68 0
80 -32 12 -30 12 -42 -2z"/>
<path d="M8208 4345 c-20 -27 -23 -51 -7 -60 14 -10 49 34 49 62 0 30 -20 29
-42 -2z"/>
<path d="M5440 4320 c0 -5 7 -10 15 -10 8 0 15 5 15 10 0 6 -7 10 -15 10 -8 0
-15 -4 -15 -10z"/>
<path d="M1807 4063 c4 -159 19 -389 27 -401 3 -5 17 -7 31 -4 14 2 25 0 25
-6 0 -5 9 -12 20 -15 18 -5 20 0 20 58 0 35 -5 67 -10 70 -15 9 -40 73 -40
102 0 13 -9 41 -20 63 -16 32 -20 59 -20 150 0 99 -2 110 -18 110 -16 0 -17
-11 -15 -127z"/>
<path d="M2382 3980 c-30 -28 -32 -100 -3 -100 16 0 21 -10 27 -46 3 -25 4
-65 1 -90 -2 -24 0 -44 4 -44 5 0 14 -11 19 -25 5 -14 16 -25 24 -25 8 0 17
-6 20 -12 2 -7 2 52 -1 132 -7 207 -32 265 -91 210z"/>
<path d="M1670 3954 c0 -21 -6 -70 -14 -107 -27 -127 -40 -533 -26 -822 6
-143 11 -277 11 -299 -1 -21 6 -50 14 -63 11 -17 15 -36 11 -61 -4 -20 -2 -44
4 -52 7 -11 10 -6 10 22 0 40 18 88 32 88 6 0 7 25 4 58 -17 183 -28 270 -34
292 -4 14 -4 131 1 260 10 287 12 540 5 638 -6 79 -18 110 -18 46z"/>
<path d="M5360 3830 c0 -5 -7 -10 -15 -10 -8 0 -15 -1 -15 -2 -1 -2 -5 -61
-10 -132 -7 -110 -6 -131 7 -144 13 -13 16 -13 24 -1 5 8 9 19 9 26 0 6 5 13
11 15 16 5 28 81 29 176 0 75 -2 82 -20 82 -11 0 -20 -4 -20 -10z"/>
<path d="M2451 3588 c-15 -39 1 -103 29 -118 28 -15 53 -2 45 24 -4 11 -9 32
-12 46 -7 31 -32 70 -44 70 -6 0 -13 -10 -18 -22z"/>
<path d="M8311 3468 c1 -24 4 -54 8 -68 7 -22 9 -19 15 22 8 48 1 88 -15 88
-5 0 -9 -19 -8 -42z"/>
<path d="M6932 3338 c-10 -18 -34 -60 -52 -93 -19 -33 -42 -71 -52 -85 -9 -14
-22 -47 -29 -75 -15 -65 -36 -115 -49 -115 -5 0 -10 -6 -10 -13 0 -8 -11 -24
-25 -37 -21 -20 -25 -33 -25 -82 0 -68 20 -79 48 -26 29 54 55 75 105 82 44 7
47 9 47 37 0 37 20 118 30 124 18 11 40 -9 40 -36 0 -17 9 -40 20 -52 18 -18
22 -20 30 -7 16 25 12 241 -5 270 -8 14 -14 34 -15 45 0 32 -20 95 -30 95 -4
0 -17 -15 -28 -32z"/>
<path d="M2374 3018 c4 -34 9 -81 13 -102 10 -68 24 -16 21 76 -3 71 -6 83
-22 86 -17 4 -18 -1 -12 -60z"/>
<path d="M8400 3051 c0 -21 6 -30 22 -34 28 -8 48 9 48 39 0 21 -5 24 -35 24
-32 0 -35 -3 -35 -29z"/>
<path d="M6627 2732 c-10 -10 -17 -24 -17 -31 0 -6 -7 -23 -16 -36 -15 -23
-15 -25 0 -25 9 0 16 5 16 10 0 6 16 10 35 10 29 0 35 4 36 23 1 12 3 32 4 45
3 28 -34 31 -58 4z"/>
<path d="M8448 2735 c-12 -12 8 -80 25 -83 24 -5 43 39 28 67 -11 19 -40 28
-53 16z"/>
<path d="M5917 2643 c-17 -28 -15 -70 3 -93 26 -35 42 -16 38 46 -2 36 -7 50
-20 52 -9 2 -18 -1 -21 -5z"/>
<path d="M9066 2495 c-19 -29 -16 -41 9 -31 20 7 30 35 18 47 -7 7 -16 1 -27
-16z"/>
<path d="M8530 2296 c0 -13 20 -26 41 -26 5 0 9 9 9 20 0 15 -7 20 -25 20 -15
0 -25 -6 -25 -14z"/>
<path d="M5857 2206 c-8 -19 3 -57 14 -50 12 7 12 51 0 58 -5 3 -11 0 -14 -8z"/>
<path d="M2490 2003 c0 -22 2 -25 10 -13 13 20 13 40 0 40 -5 0 -10 -12 -10
-27z"/>
<path d="M5960 1952 c-14 -9 -28 -21 -31 -25 -4 -5 -9 -62 -11 -128 -3 -65
-10 -124 -15 -131 -5 -7 -18 -60 -28 -118 -9 -58 -24 -119 -31 -137 -18 -40
-17 -74 1 -143 8 -30 15 -81 15 -112 0 -45 3 -58 15 -58 18 0 35 -39 35 -79 0
-15 8 -37 18 -49 9 -11 22 -29 29 -39 11 -17 12 -17 12 3 1 12 7 27 15 33 7 6
18 37 24 69 12 61 26 236 23 290 0 19 5 42 13 53 11 16 13 67 9 267 -4 224 -6
248 -23 262 -10 8 -21 25 -25 38 -8 26 -12 26 -45 4z"/>
<path d="M3556 1798 c-13 -57 -16 -158 -6 -180 6 -13 24 -33 41 -43 16 -11 29
-27 29 -36 0 -23 31 -57 55 -61 15 -2 21 3 23 24 2 19 -6 36 -32 62 -30 29
-36 43 -36 77 0 46 -35 152 -56 170 -10 8 -14 6 -18 -13z"/>
<path d="M6255 1807 c-9 -22 -2 -394 8 -403 4 -4 9 -5 13 -2 10 11 6 400 -5
411 -7 7 -12 5 -16 -6z"/>
<path d="M6312 1517 c-6 -7 -11 -22 -12 -32 0 -11 -1 -31 -1 -45 -2 -48 22
-233 32 -251 12 -22 46 -42 59 -34 12 7 30 72 30 108 0 17 -10 37 -25 51 -20
18 -25 33 -26 72 -2 119 -24 171 -57 131z"/>
<path d="M3777 1399 c12 -24 13 -35 4 -52 -7 -12 -21 -38 -31 -57 -21 -38 -26
-86 -10 -92 5 -1 56 -2 114 0 93 3 105 5 109 23 3 12 14 19 28 19 12 0 19 -3
16 -7 -4 -3 5 -12 19 -20 20 -10 30 -10 40 -2 10 8 14 8 14 0 0 -6 6 -11 13
-11 8 0 19 -12 25 -26 7 -14 17 -22 23 -18 6 3 15 0 20 -7 6 -9 12 -10 17 -4
18 25 124 46 136 26 3 -4 26 -14 50 -21 49 -13 141 -6 130 11 -3 5 0 17 7 25
16 20 11 25 -108 83 -86 43 -113 51 -172 55 -38 2 -81 10 -94 18 -14 7 -38 21
-56 31 -21 12 -67 20 -153 26 -77 5 -123 12 -126 19 -2 7 -10 12 -17 12 -11 0
-10 -6 2 -31z"/>
<path d="M6242 1390 c0 -19 2 -27 5 -17 2 9 2 25 0 35 -3 9 -5 1 -5 -18z"/>
<path d="M6658 1148 c23 -24 36 -21 26 6 -3 9 -16 16 -27 16 l-21 0 22 -22z"/>
<path d="M5794 1097 c-4 -12 -6 -39 -5 -61 1 -22 -4 -45 -13 -55 -8 -9 -17
-34 -20 -56 -10 -65 -15 -73 -86 -148 -48 -50 -81 -76 -109 -84 -22 -7 -92
-37 -155 -68 -64 -30 -122 -55 -128 -55 -7 0 -26 -9 -43 -20 -21 -14 -47 -20
-86 -20 -49 0 -59 -3 -73 -25 -10 -15 -30 -27 -53 -31 -21 -4 -50 -15 -64 -25
-14 -10 -50 -28 -80 -39 -30 -12 -74 -32 -99 -45 -25 -13 -72 -30 -105 -39
-80 -20 -176 -55 -195 -71 -8 -7 -37 -22 -63 -33 -26 -12 -60 -30 -74 -42 -14
-11 -37 -20 -50 -20 -14 0 -47 -14 -74 -32 -42 -27 -49 -36 -49 -63 0 -67 -19
-65 541 -65 390 0 508 3 518 13 11 9 14 9 18 0 3 -10 40 -13 136 -13 75 0 127
4 121 9 -22 20 -130 47 -161 41 -24 -6 -36 -3 -48 10 -19 21 -10 29 34 32 19
1 37 10 42 20 13 25 32 23 68 -8 32 -26 52 -24 80 10 11 13 10 17 -4 22 -9 4
-13 10 -8 13 9 7 36 98 35 121 -4 138 -2 157 22 215 14 33 30 61 35 63 6 2 26
-6 45 -17 20 -13 50 -21 75 -21 23 0 59 -9 81 -20 22 -11 49 -20 61 -20 12 0
38 -5 58 -11 50 -14 114 11 109 44 -2 18 -11 23 -48 27 -57 7 -87 24 -95 52
-3 13 -16 45 -27 71 -21 46 -21 52 -10 215 17 235 18 228 -18 240 -26 9 -30 8
-36 -11z m-724 -860 c0 -19 -20 -36 -36 -30 -8 3 -14 14 -14 24 0 14 7 19 25
19 14 0 25 -6 25 -13z m415 -67 c4 -6 -5 -10 -19 -10 -14 0 -26 5 -26 10 0 6
9 10 19 10 11 0 23 -4 26 -10z m-1215 -130 c0 -5 -4 -10 -10 -10 -5 0 -10 5
-10 10 0 6 5 10 10 10 6 0 10 -4 10 -10z"/>
<path d="M6070 736 c0 -19 5 -38 11 -42 12 -7 8 -44 -12 -92 -13 -31 -12 -35
5 -48 22 -16 106 -19 106 -4 0 6 -4 10 -9 10 -18 0 -53 75 -64 138 -13 72 -37
97 -37 38z"/>
<path d="M6256 522 c-6 -11 105 -24 116 -13 4 3 -3 7 -15 8 -12 1 -38 5 -58 9
-20 3 -39 2 -43 -4z"/>
<path d="M7294 306 c-13 -11 -16 -18 -8 -26 7 -7 16 -5 32 8 33 29 12 44 -24
18z"/>
<path d="M7147 211 c-52 -28 -50 -20 -31 -110 4 -21 2 -30 -11 -35 -27 -10
-70 16 -71 42 -3 49 -23 56 -121 43 -48 -6 -122 -15 -163 -20 -41 -4 -95 -16
-120 -25 -25 -10 -72 -23 -105 -31 -65 -14 -202 -59 -212 -68 -3 -4 68 -6 158
-6 160 1 163 1 182 25 27 35 98 34 121 -1 20 -30 46 -33 46 -4 0 23 18 60 34
71 13 9 59 10 80 2 28 -11 19 -52 -16 -74 l-33 -20 141 0 c163 0 154 -6 154
100 0 64 11 97 23 68 9 -21 28 13 25 42 -4 33 -23 33 -81 1z"/>
<path d="M7281 134 c0 -11 3 -14 6 -6 3 7 2 16 -1 19 -3 4 -6 -2 -5 -13z"/>
</g>
</svg>
